<svg version="1.1" class="has-solid " viewBox="0 0 36 36" preserveAspectRatio="xMidYMid meet" xmlns="http://www.w3.org/2000/svg" xmlns:xlink="http://www.w3.org/1999/xlink" focusable="false" role="img" width="21" height="21" fill="currentColor"><path d="M18,2A16,16,0,1,0,34,18,16,16,0,0,0,18,2Zm0,30A14,14,0,1,1,32,18,14,14,0,0,1,18,32Z" class="clr-i-outline clr-i-outline-path-1"/><path d="M18.13,28.21a8.67,8.67,0,0,0,8.26-6H9.87A8.67,8.67,0,0,0,18.13,28.21Z" class="clr-i-outline clr-i-outline-path-4"/><path d="M18,2A16,16,0,1,0,34,18,16,16,0,0,0,18,2ZM8.89,13.89a2,2,0,1,1,2,2A2,2,0,0,1,8.89,13.89Zm9.24,14.32a8.67,8.67,0,0,1-8.26-6H26.38A8.67,8.67,0,0,1,18.13,28.21Zm6.93-12.32a2,2,0,1,1,2-2A2,2,0,0,1,25.05,15.89Z" class="clr-i-solid clr-i-solid-path-1" style="display:none"/><circle cx="10.89" cy="13.89" r="2" class="clr-i-outline clr-i-outline-path-2"/><circle cx="25.05" cy="13.89" r="2" class="clr-i-outline clr-i-outline-path-3"/></svg>